<?xml version="1.0" encoding="utf-8"?>
<!-- Generator: Adobe Illustrator 22.1.0, SVG Export Plug-In . SVG Version: 6.00 Build 0)  -->
<svg version="1.1" id="Layer_1" xmlns="http://www.w3.org/2000/svg" xmlns:xlink="http://www.w3.org/1999/xlink" x="0px" y="0px"
	 viewBox="0 0 300 120" style="enable-background:new 0 0 300 120;" xml:space="preserve">
<style type="text/css">
	.st0{fill-rule:evenodd;clip-rule:evenodd;fill:#FFFFFF;}
	.st1{fill:#FFFFFF;}
</style>
<g>
	<g>
		<polygon class="st0" points="31.4,73.4 14.4,46.6 31.5,46.6 32.3,46.6 33.2,46.8 34.1,47 35,47.3 35.8,47.7 36.6,48.2 37.3,48.7 
			38,49.3 38.6,50 39.1,50.7 39.6,51.5 40,52.3 40.3,53.1 40.5,54 40.7,55 40.7,55.8 40.7,56.3 40.7,56.6 40.7,56.9 40.6,57.3 
			40.6,57.6 40.5,57.9 40.4,58.2 40.3,58.6 40.2,58.9 40.1,59.2 40,59.5 39.9,59.8 39.7,60.1 39.6,60.4 39.4,60.6 39.3,60.9 		"/>
		<path class="st0" d="M20.6,44l-0.1-0.3l0-0.3l0-0.3l0-0.3l0-0.3l0-0.3l0-0.3l0-0.7l0.1-0.7l0.2-0.7l0.2-0.7l0.3-0.7l0.4-0.6
			l0.4-0.6l0.5-0.5l0.5-0.5l0.6-0.4l0.6-0.4l0.6-0.3l0.7-0.3l0.7-0.2l0.7-0.1l0.7,0h45.1l0.7,0l0.7,0.1l0.7,0.2l0.7,0.3l0.6,0.3
			l0.6,0.4l0.6,0.4l0.5,0.5l0.5,0.5l0.4,0.6l0.4,0.6l0.3,0.7l0.3,0.7l0.2,0.7l0.1,0.7l0,0.7l0,0.3l0,0.3l0,0.3l0,0.3l0,0.3L80,43.7
			L79.9,44l-0.1,0.2l-0.1,0.2l-0.1,0.2L79.6,45l-0.1,0.2l-0.1,0.2l-0.1,0.2l-0.1,0.2L79,46.1L56.6,81.5l-0.2,0.3l-0.3,0.3l-0.3,0.4
			l-0.3,0.3l-0.3,0.3l-0.4,0.3l-0.4,0.3L54,84l-0.4,0.2l-0.4,0.2l-0.5,0.2l-0.5,0.1l-0.5,0.1l-0.5,0.1L50.8,85l-0.5,0l-0.5,0
			l-0.5-0.1l-0.5-0.1l-0.5-0.1l-0.5-0.1l-0.5-0.2L47,84.2L46.5,84l-0.4-0.2l-0.4-0.3l-0.4-0.3l-0.3-0.3l-0.3-0.3l-0.3-0.4l-0.3-0.4
			l-0.2-0.3l-3.3-5.2l3.4-5.4c5.2-8.3,11.3-16,16.8-16l9,0h0h0.1c1,0,1.8,0.4,2.3,1h0c0.1-7.6-6.2-7.6-13-8.2l0,0c0-0.1,0-0.1,0-0.2
			c0-1.8-1.5-3.3-3.3-3.4l0,0L20.6,44L20.6,44z"/>
	</g>
	<path class="st1" d="M185.6,45l1.8-10.1h14.1L199.8,45H185.6z M178.5,84.9l6.5-36.4H199l-6.5,36.4H178.5z M91,34.9h16l-5.5,28.7
		c-0.1,0.4-0.2,0.8-0.2,1.1c-0.1,0.4-0.1,0.8-0.1,1.1c-0.1,2.2,0.4,3.8,1.6,5c2.5,2.6,8.5,2.2,11-0.1c1.3-1.2,2.3-3.5,2.9-6.9
		l5.6-29h15.9l-5.5,29.6c-2.5,13.8-10.8,20.3-25.3,20.3c-17.5,0.1-22.5-5.5-22.1-18.7c0-0.7,0.1-1.5,0.2-2.3c0.1-0.9,0.2-1.9,0.5-3
		L91,34.9z M134.3,84.9L141,49h13l-0.8,4.7c1.9-2,3.9-3.4,5.9-4.4c2.1-0.9,4.3-1.4,6.7-1.4c3.7,0,6.7,1,8.8,3.1
		c2.1,2.1,3.1,4.9,3,8.4c0,0.7-0.1,1.4-0.2,2.2c-0.1,0.8-0.2,1.6-0.4,2.5l-3.6,20.7h-14.3l3.5-20.3c0.1-0.5,0.2-0.9,0.2-1.1
		c0-0.3,0-0.5,0.1-0.7c0-1.2-0.3-2.2-1.1-2.9c-0.8-0.8-1.9-1.1-3.2-1.1c-1.8,0-3.2,0.6-4.2,1.7c-1.1,1.1-1.8,2.9-2.3,5.3l-3.4,19.2
		H134.3z M197.9,84.9l9.2-50h38.6l-2.2,11.4h-22.1l-1.7,8.8l17.6,0.1l-2.1,11.1l-17.5-0.1l-3.4,18.8H197.9z M249.3,45l1.8-10.1h14.1
		L263.5,45H249.3z M242.2,84.9l6.5-36.4h14.1l-6.5,36.4H242.2z M262.3,84.9l8.5-50h14.2l-8.4,50H262.3z"/>
</g>
</svg>
