<?xml version="1.0" encoding="UTF-8" standalone="no"?><!-- Generator: Gravit.io --><svg xmlns="http://www.w3.org/2000/svg" xmlns:xlink="http://www.w3.org/1999/xlink" style="isolation:isolate" viewBox="0 0 500 332" width="500pt" height="332pt"><defs><clipPath id="_clipPath_qrmSUrzD22JKtp4duoL1BPoMklOCYSrZ"><rect width="500" height="332"/></clipPath></defs><g clip-path="url(#_clipPath_qrmSUrzD22JKtp4duoL1BPoMklOCYSrZ)"><path d=" M 324.51 331.855 L 324.51 331.865 L 396.169 331.794 C 403.702 331.787 409.818 325.664 409.818 318.131 L 409.818 7.533 L 409.818 7.533 C 409.818 0 405.067 -2.264 399.216 2.481 L 3.631 323.268 C -2.22 328.012 -0.854 331.861 6.679 331.856 L 123.022 331.784 C 126.609 331.782 131.759 329.917 134.516 327.621 L 324.51 169.374 L 324.51 267.227 C 323.708 267.159 322.896 267.124 322.077 267.124 L 256.747 267.124 L 242.699 266.97 C 237.631 266.914 230.349 269.496 226.448 272.733 L 162.588 325.726 C 158.687 328.963 159.635 331.6 164.704 331.611 L 322.077 331.953 C 322.896 331.955 323.708 331.922 324.51 331.855 Z  M 427.233 113.02 L 494.772 56.738 C 497.657 54.333 500 55.43 500 59.186 L 500 266.563 C 500 270.319 497.599 275.248 494.642 277.563 L 427.363 330.241 C 424.406 332.557 422.005 331.387 422.005 327.631 L 422.005 124.182 C 422.005 120.426 424.347 115.425 427.233 113.02 L 427.233 113.02 L 427.233 113.02 Z  M 426.075 0.346 L 495.93 0.346 C 498.176 0.346 500 2.17 500 4.417 L 500 28.812 C 500 31.058 498.599 34.05 496.873 35.488 L 425.131 95.272 C 423.406 96.711 422.005 96.054 422.005 93.808 L 422.005 4.417 C 422.005 2.17 423.828 0.346 426.075 0.346 L 426.075 0.346 L 426.075 0.346 Z " fill-rule="evenodd" fill="rgb(255,0,0)"/><linearGradient id="_lgradient_0" x1="0.2999999999999995" y1="0.2666040355243824" x2="13.448138340844046" y2="14.45962756433616" gradientTransform="matrix(500,0,0,331.953,0,0)" gradientUnits="userSpaceOnUse"><stop offset="0%" stop-opacity="1" style="stop-color:rgb(68,68,68)"/><stop offset="4.1070453169975885%" stop-opacity="1" style="stop-color:rgb(255,34,85)"/></linearGradient><path d=" M 324.51 331.855 L 324.51 331.865 L 396.169 331.794 C 403.702 331.787 409.818 325.664 409.818 318.131 L 409.818 7.533 L 409.818 7.533 C 409.818 0 405.067 -2.264 399.216 2.481 L 3.631 323.268 C -2.22 328.012 -0.854 331.861 6.679 331.856 L 123.022 331.784 C 126.609 331.782 131.759 329.917 134.516 327.621 L 324.51 169.374 L 324.51 267.227 C 323.708 267.159 322.896 267.124 322.077 267.124 L 256.747 267.124 L 242.699 266.97 C 237.631 266.914 230.349 269.496 226.448 272.733 L 162.588 325.726 C 158.687 328.963 159.635 331.6 164.704 331.611 L 322.077 331.953 C 322.896 331.955 323.708 331.922 324.51 331.855 Z  M 427.233 113.02 L 494.772 56.738 C 497.657 54.333 500 55.43 500 59.186 L 500 266.563 C 500 270.319 497.599 275.248 494.642 277.563 L 427.363 330.241 C 424.406 332.557 422.005 331.387 422.005 327.631 L 422.005 124.182 C 422.005 120.426 424.347 115.425 427.233 113.02 L 427.233 113.02 L 427.233 113.02 Z  M 426.075 0.346 L 495.93 0.346 C 498.176 0.346 500 2.17 500 4.417 L 500 28.812 C 500 31.058 498.599 34.05 496.873 35.488 L 425.131 95.272 C 423.406 96.711 422.005 96.054 422.005 93.808 L 422.005 4.417 C 422.005 2.17 423.828 0.346 426.075 0.346 L 426.075 0.346 L 426.075 0.346 Z " fill-rule="evenodd" fill="url(#_lgradient_0)" fill-opacity="0.78"/></g></svg>